<svg width="17" height="17" viewBox="0 0 17 17" fill="none" xmlns="http://www.w3.org/2000/svg">
<path d="M7.99713 0.345361C8.1468 -0.115294 8.79851 -0.115294 8.94818 0.345361L10.6055 5.44617C10.6725 5.65219 10.8645 5.79167 11.0811 5.79167H16.4444C16.9287 5.79167 17.1301 6.41147 16.7383 6.69617L12.3993 9.84865C12.224 9.97597 12.1507 10.2017 12.2176 10.4077L13.875 15.5085C14.0247 15.9691 13.4974 16.3522 13.1056 16.0675L8.76655 12.915C8.5913 12.7877 8.35401 12.7877 8.17876 12.915L3.83975 16.0675C3.4479 16.3522 2.92066 15.9691 3.07033 15.5085L4.72769 10.4077C4.79462 10.2017 4.72129 9.97597 4.54605 9.84865L0.20704 6.69617C-0.184816 6.41147 0.0165714 5.79167 0.500933 5.79167H5.86424C6.08086 5.79167 6.27284 5.65219 6.33977 5.44617L7.99713 0.345361Z" fill="#FEC12A"/>
</svg>
